# File created by Blade
# Date/Time:  Tue Jan 27 19:38:14 2015
# Frame Rate: 120.000 fps
#------------------------------------------------------
:FULLY-SPECIFIED
:DEGREES
4328
root 4.189509 32.349159 1.873336 -1.850768 -30.310293 -1.651116
Spine 3.844616 -14.200007 -3.522687
Head 17.212751 28.723844 12.787642
LeftShoulder -14.910636 2.362988 30.868415
LeftArm -7.520350 32.267510 -106.185817
LeftForeArm 4.179427 -0.000000 16.992982
LeftHand 9.891101 -0.000000 -3.042722
LeftHandThumb1 -26.253704 0.000000 33.147579
RightShoulder -33.804351 -21.843024 -21.678981
RightArm -23.696984 64.051972 69.233923
RightForeArm 28.018706 -0.000000 126.594984
RightHand 25.229565 -0.000000 -66.483758
RightHandThumb1 -24.326973 -0.000000 -32.862282
LeftUpLeg 11.680040 15.411854 -1.051259
LeftLeg -1.030596 -0.000000 0.000000
LeftFoot -21.709432 22.364448 -25.093273
LeftToeBase 15.999664 -0.000000 -0.000000
RightUpLeg -0.824543 12.267536 5.513442
RightLeg 9.789768 -0.000000 -0.000000
RightFoot -8.134005 -4.796592 10.895427
RightToeBase 10.910236 -0.000000 -0.000000
4329
root 4.190030 32.348436 1.879047 -1.854784 -30.097215 -1.630365
Spine 3.854425 -14.191339 -3.523995
Head 17.175225 28.651368 12.775401
LeftShoulder -14.920048 2.358207 30.862012
LeftArm -7.433128 32.216378 -106.116164
LeftForeArm 4.300776 -0.000000 16.932101
LeftHand 9.888702 -0.000000 -2.959445
LeftHandThumb1 -26.253704 0.000000 33.147579
RightShoulder -33.740659 -21.911354 -21.680085
RightArm -23.473683 63.398371 69.489042
RightForeArm 27.175083 0.000000 126.106881
RightHand 25.233553 -0.000000 -66.147052
RightHandThumb1 -24.326973 -0.000000 -32.862282
LeftUpLeg 11.655513 15.244190 -1.080822
LeftLeg -1.033820 -0.000000 0.000000
LeftFoot -21.669453 22.335683 -25.022182
LeftToeBase 15.960261 -0.000000 -0.000000
RightUpLeg -0.756682 12.338717 5.509014
RightLeg 9.707372 -0.000000 -0.000000
RightFoot -8.230350 -5.061339 10.975419
RightToeBase 10.930163 -0.000000 -0.000000
4330
root 4.189247 32.347969 1.885415 -1.868118 -29.878049 -1.609141
Spine 3.878990 -14.175227 -3.531295
Head 17.119521 28.554217 12.757082
LeftShoulder -14.922171 2.404210 30.848527
LeftArm -7.311111 32.226672 -106.013991
LeftForeArm 4.316881 -0.000000 16.929753
LeftHand 9.801655 0.000000 -2.861796
LeftHandThumb1 -26.253704 0.000000 33.147579
RightShoulder -33.689147 -21.973939 -21.665612
RightArm -23.166016 62.619112 69.830208
RightForeArm 26.016993 -0.000000 125.567503
RightHand 25.200945 0.000000 -65.940438
RightHandThumb1 -24.326973 -0.000000 -32.862282
LeftUpLeg 11.638936 15.118909 -1.096171
LeftLeg -1.023316 -0.000000 0.000000
LeftFoot -21.628348 22.238687 -24.977522
LeftToeBase 16.057053 -0.000000 -0.000000
RightUpLeg -0.679924 12.389180 5.508543
RightLeg 9.628822 -0.000000 -0.000000
RightFoot -8.326794 -5.323035 11.037072
RightToeBase 10.919064 -0.000000 -0.000000
4331
root 4.189893 32.347894 1.892380 -1.876995 -29.649438 -1.598017
Spine 3.909233 -14.152600 -3.524682
Head 17.045103 28.452416 12.732552
LeftShoulder -14.927635 2.352411 30.854075
LeftArm -7.270314 32.009875 -105.965653
LeftForeArm 4.575282 -0.000000 16.901078
LeftHand 9.783651 -0.000000 -2.857461
LeftHandThumb1 -26.253704 0.000000 33.147579
RightShoulder -33.620084 -22.044280 -21.647255
RightArm -22.849031 61.776847 70.186241
RightForeArm 24.667757 -0.000000 124.962736
RightHand 25.042670 0.000000 -65.697594
RightHandThumb1 -24.326973 -0.000000 -32.862282
LeftUpLeg 11.630438 14.949318 -1.113842
LeftLeg -1.037147 -0.000000 0.000000
LeftFoot -21.566122 22.183408 -24.924630
LeftToeBase 16.079408 -0.000000 -0.000000
RightUpLeg -0.598586 12.418913 5.511164
RightLeg 9.540211 -0.000000 -0.000000
RightFoot -8.396538 -5.560382 11.100864
RightToeBase 10.920994 -0.000000 -0.000000
4332
root 4.191665 32.347600 1.897998 -1.879230 -29.403760 -1.578686
Spine 3.934714 -14.120069 -3.521746
Head 16.969143 28.357261 12.707858
LeftShoulder -14.949799 2.380715 30.844951
LeftArm -7.111583 31.911630 -105.870448
LeftForeArm 4.732970 -0.000000 16.859374
LeftHand 9.803797 -0.000000 -2.912506
LeftHandThumb1 -26.253704 0.000000 33.147579
RightShoulder -33.606216 -22.151608 -21.610698
RightArm -22.330417 60.812973 70.758230
RightForeArm 23.194282 0.000000 124.282180
RightHand 24.969836 -0.000000 -65.549778
RightHandThumb1 -24.326973 -0.000000 -32.862282
LeftUpLeg 11.600217 14.799639 -1.137533
LeftLeg -1.035582 -0.000000 0.000000
LeftFoot -21.514435 22.103837 -24.853106
LeftToeBase 16.132185 -0.000000 -0.000000
RightUpLeg -0.583211 12.299500 5.493556
RightLeg 9.550042 -0.000000 -0.000000
RightFoot -8.498385 -5.675259 11.161919
RightToeBase 10.952576 -0.000000 -0.000000
4333
root 4.191779 32.347718 1.905382 -1.888374 -29.148621 -1.562014
Spine 3.977022 -14.088313 -3.521035
Head 16.851117 28.267125 12.667085
LeftShoulder -14.959060 2.350718 30.847114
LeftArm -7.051728 31.811532 -105.811483
LeftForeArm 4.850853 -0.000000 16.854491
LeftHand 9.819001 -0.000000 -2.908249
LeftHandThumb1 -26.253704 0.000000 33.147579
RightShoulder -33.539761 -22.203432 -21.599657
RightArm -22.000990 59.779798 71.169245
RightForeArm 21.650341 -0.000000 123.502571
RightHand 24.945303 -0.000000 -65.060193
RightHandThumb1 -24.326973 -0.000000 -32.862282
LeftUpLeg 11.578825 14.690418 -1.145888
LeftLeg -1.028332 -0.000000 0.000000
LeftFoot -21.425064 22.011015 -24.742214
LeftToeBase 16.149679 -0.000000 -0.000000
RightUpLeg -0.544625 12.195012 5.485044
RightLeg 9.539488 -0.000000 -0.000000
RightFoot -8.572547 -5.816697 11.171453
RightToeBase 10.878021 -0.000000 -0.000000
